# xmcd
#
# Track frame offsets:
#	150
#	16111
#	35561
#	55925
#	73021
#	91113
#	107912
#	125789
#	141092
#	157445
#	176190
#	191884
#	207687
#	222740
#	238573
#
# Disc length: 3462 seconds
#
# Revision: 1
# Processed by: cddbd v1.5.2PL0 Copyright (c) Steve Scherf et al.
# Submitted via: audiograbber 1.83.01
#
DISCID=f20d840f
DTITLE=The Story of Chicano Rap - The Story of Chicano Rap
DYEAR=2005
DGENRE=Rap
TTITLE0=Lighter Shade of Brown - World Famous
TTITLE1=Slow Pain - Saturday Night Ballin'
TTITLE2=Don Cisco - Oh Boy
TTITLE3=Junbug Slim - Get Up to Get Down
TTITLE4=Mr. Criminal - For The Street
TTITLE5=Mr. Capone-E - What's My Name
TTITLE6=Scrappy Loco - West Coast Do or Die
TTITLE7=Seldom Seen - In This Bitch
TTITLE8=South Sisters - Come Smoke With Me
TTITLE9=C-Blunt - Touch of Julius
TTITLE10=Seldom Seen - Blow Your Lights Out
TTITLE11=Jay Vee and Nino B - County Jail
TTITLE12=Slow Pain - Lil, Don Juan
TTITLE13=Don Cisco - West Coast Locos
TTITLE14=Mr. Capone-E - Hi Power Gangster
EXTD=
EXTT0=
EXTT1=
EXTT2=
EXTT3=
EXTT4=
EXTT5=
EXTT6=
EXTT7=
EXTT8=
EXTT9=
EXTT10=
EXTT11=
EXTT12=
EXTT13=
EXTT14=
PLAYORDER=
